<?xml version="1.0" encoding="utf-8"?>
<!-- Generator: Adobe Illustrator 24.3.0, SVG Export Plug-In . SVG Version: 6.00 Build 0)  -->
<svg version="1.1" id="Layer_1" xmlns="http://www.w3.org/2000/svg" xmlns:xlink="http://www.w3.org/1999/xlink" x="0px" y="0px"
	 viewBox="0 0 1440 820" style="enable-background:new 0 0 1440 820;" xml:space="preserve">
<style type="text/css">
	.st0{fill:#333333;}
</style>
<g>
	<polygon class="st0" points="743.6,373.7 746.8,373.7 745.2,371.2 	"/>
	<path class="st0" d="M733,371h-2.8v5.1h2.8c1.6,0,2.2-0.7,2.2-2.5C735.2,371.9,734.6,371,733,371z"/>
	<path class="st0" d="M703,370.8c-2.1,0-3,0.9-3,2.8s0.9,2.8,3,2.8c2.1,0,3-0.9,3-2.8S705.1,370.8,703,370.8z"/>
	<path class="st0" d="M-2.7,0v820h1440V0H-2.7z M685.2,347.1l48.6-19.9c0.7-0.3,4.2-1.9,5-2.2l4-1.8c1-0.4,3.8-1.8,4.1-1.9
		c2-0.9,4.4-2.1,5-2.4c0.1-0.1,0.2,0,0.3,0.1c0,0.1,0,0.1,0,0.1c-0.4,1.3-0.9,2.7-1.5,3.9c-0.4,1-0.8,1.9-1.3,2.7
		c-0.4,0.7-1,1.4-1.6,2c-0.7,0.7-1.7,1.3-2.7,1.7c-0.6,0.2-1.6,0.7-2.4,1c-0.1,0.1-3.1,1.2-3.8,1.4l-52.4,18.5
		c-1.3,0.4-2.7,1.3-2.7,2.8c0.1,0.9,0.5,1.8,1.3,2.4l13.2,12.4h-6.1c-0.1-0.4-0.3-0.8-0.5-1.3c-0.3-0.5-0.6-1-1-1.3l-1.3-1.3l-7-7
		c-1.2-1.2-1.9-2.7-2-4.4C680.5,350.6,681.7,348.6,685.2,347.1z M715,359.9c-0.3,0-0.5,0.2-0.5,0.5s0.1,0.5,0.4,0.6l-19.5,2.4
		l-3.7-3.4l42.6-8c0.1,0,0.1,0,0.1,0.1c0.1,0,0.1,0.1,0,0.1c-0.2,0.3-0.8,1-1,1.3l-0.9,1c-0.5,0.6-1.4,1.5-1.6,1.7
		c-0.5,0.5-1.2,1-1.9,1.3c-0.7,0.3-1.5,0.5-2.2,0.7C725.9,358.2,715.2,359.9,715,359.9z M726.1,367.9h-26l-4-3.7l20.2-2.3
		L726.1,367.9z M733.8,349.9l-26.6,5.2c-0.2,0-0.4,0.2-0.4,0.5s0.1,0.4,0.4,0.6l-16.4,3.1l-3.2-3l53.1-13.7c0.1,0,0.1,0,0.1-0.1
		c0.1,0.1,0.1,0.1,0,0.2c-0.2,0.4-0.8,1.3-1,1.7c-0.2,0.4-0.5,0.8-0.9,1.3c-0.4,0.7-1,1.5-1.4,1.9c-0.5,0.6-1,1-1.6,1.4
		C735.3,349.5,734.6,349.8,733.8,349.9z M739.1,340.6L700.5,351c-0.2,0.1-0.4,0.3-0.4,0.5c0,0.2,0.1,0.4,0.4,0.5l-13.5,3.6l-1.1-1
		c-0.4-0.3-0.6-0.8-0.6-1.3c0-1,0.8-1.5,2-1.9l52.3-17.2l2.4-0.8c0.4-0.1,1.7-0.6,1.9-0.7c1-0.4,1.9-0.7,2.8-1.1
		c0.1-0.1,0.3,0.1,0.2,0.2c-0.1,0.1-0.7,1.6-0.9,1.9c-0.4,0.8-0.8,1.6-1.3,2.2c-0.4,0.7-1,1.5-1.3,1.9c-0.5,0.7-1.2,1.3-1.9,1.7
		C740.7,340,739.9,340.4,739.1,340.6z M695.9,370.6l-1.1,0.1c-0.4,0.1-0.5,0.4-0.5,0.7v4.3c0,0.3,0,0.7,0.5,0.7l1.1,0.1v1.1h-6.7
		v-1.1l1.1-0.1c0.4-0.1,0.6-0.4,0.5-0.7v-1.3h-5.1v1.3c0,0.4,0.2,0.7,0.6,0.7l1.1,0.1v1.1h-6.7v-1.1l1.1-0.1
		c0.4-0.1,0.5-0.4,0.5-0.7v-4.3c0-0.3,0-0.7-0.5-0.7l-1.2-0.1v-1.1h6.7v1.1l-1.1,0.1c-0.4,0.1-0.6,0.4-0.5,0.7v1.3h5.2v-1.3
		c0-0.4-0.2-0.7-0.6-0.7l-1.1-0.1v-1h6.7V370.6z M703,378c-5.4,0-6.8-2.4-6.8-4.4s1.4-4.4,6.8-4.4c5.5,0,6.8,2.4,6.8,4.4
		S708.4,378,703,378z M724.7,370.6l-1.1,0.1c-0.4,0.1-0.5,0.4-0.5,0.7v6.3H719c-0.4,0-0.6-0.1-0.8-0.4l-4.4-5.8v4.1
		c0,0.4,0.2,0.7,0.6,0.7l1.1,0.1v1.1h-5.3v-1.1l1.1-0.1c0.5-0.1,0.6-0.4,0.6-0.7v-4.3c0-0.3-0.1-0.7-0.6-0.7l-1.1-0.1v-1.1h5.7
		c0.4,0,0.6,0.1,0.8,0.4l4.4,5.8v-4.1c0-0.3-0.1-0.7-0.6-0.7l-1.1-0.1h-0.1v-1h5.3V370.6z M733.6,377.6h-8.3v-1.1l1.1-0.1
		c0.4-0.1,0.5-0.4,0.5-0.7v-4.4v-0.1c0-0.3-0.3-0.6-0.6-0.6l-1-0.1v-1.1h8.2c3,0,5.4,1.1,5.4,4.1S736.5,377.6,733.6,377.6z
		 M754.1,377.9h-7.2v-1.1l1-0.1c0.4,0,0.7-0.2,0.4-0.7l-0.4-0.6h-5.1l-0.4,0.7c-0.1,0.3,0.1,0.5,0.4,0.6l0.9,0.1v1.1h-5.3v-1.1
		l1.1-0.1c0.3-0.1,0.4-0.2,0.6-0.4l2.8-4.6c0-0.1,0.1-0.1,0.1-0.2c0-0.2-0.1-0.4-0.4-0.5l-1.5-0.1v-1.1h6.4c0.3,0,0.7,0.1,0.8,0.5
		l3.8,5.8c0.1,0.4,0.5,0.6,0.9,0.7l1.1,0.2V377.9z"/>
</g>
</svg>
