<svg id="Layer_1" data-name="Layer 1" xmlns="http://www.w3.org/2000/svg" viewBox="0 0 831.47 582.52"><defs><style>.cls-1{fill:#333;}</style></defs><path class="cls-1" d="M454.41,347.55h-5.36v9.85h5.36c3.16,0,4.27-1.51,4.27-4.93S457.57,347.55,454.41,347.55Z" transform="translate(-5.21 -6.38)"/><ellipse class="cls-1" cx="391.64" cy="346.09" rx="5.69" ry="5.48"/><polygon class="cls-1" points="469.73 346.36 475.96 346.36 472.76 341.45 469.73 346.36"/><path class="cls-1" d="M5.21,6.38V588.9H836.68V6.38ZM362.3,301.51,456,263.41c1.43-.59,8.16-3.51,9.7-4.2l7.68-3.46c1.84-.84,7.21-3.36,8-3.74,3.77-1.82,8.43-4,9.4-4.56a.39.39,0,0,1,.51.14.4.4,0,0,1,0,.32,78,78,0,0,1-2.85,7.55,48.4,48.4,0,0,1-2.57,5.27,17,17,0,0,1-3.13,3.84,16,16,0,0,1-5.1,3.26c-1.07.43-3.19,1.27-4.61,1.81-.34.13-6.05,2.26-7.2,2.64L365.08,307.86c-2.36.81-5.11,2.39-5.11,5.44a6.7,6.7,0,0,0,2.39,4.51l25.49,23.72h-11.8a12.23,12.23,0,0,0-1-2.38,10.07,10.07,0,0,0-2-2.62l-2.39-2.42-13.44-13.43a12.46,12.46,0,0,1-3.84-8.54C353.38,308.1,355.63,304.25,362.3,301.51Zm57.56,24.61a1.05,1.05,0,0,0-.95,1,1.16,1.16,0,0,0,.71,1.08L382,333l-7.12-6.59L456.71,311a.24.24,0,0,1,.23.06.25.25,0,0,1,0,.34c-.43.59-1.48,1.85-2,2.42l-1.75,2c-1.06,1.18-2.71,2.86-3.2,3.3a14.32,14.32,0,0,1-3.56,2.41,15.2,15.2,0,0,1-4.26,1.29C440.81,323,420.28,326.12,419.86,326.12Zm21.32,15.41H391.25l-7.7-7.13,38.85-4.51ZM456.11,307,405,317a1,1,0,0,0-.86,1c0,.55.27.79.83,1.11l-31.44,6-6.15-5.69L469.5,293.1a.3.3,0,0,1,.37,0,.29.29,0,0,1,0,.42c-.46.83-1.58,2.65-2,3.29s-1,1.51-1.67,2.41c-.88,1.19-2.09,2.74-2.76,3.5a12.71,12.71,0,0,1-3.07,2.64A12.44,12.44,0,0,1,456.11,307Zm10.47-17.87-74.27,19.92a1.13,1.13,0,0,0-.78,1,1.18,1.18,0,0,0,.77,1L365.92,318l-2.17-2a3.46,3.46,0,0,1-1.13-2.44c0-1.94,1.52-2.85,3.84-3.59l100.63-33.09,4.6-1.56c.68-.24,3.29-1.2,3.74-1.42,1.88-.72,3.65-1.43,5.47-2.15.3-.12.59.11.47.42s-1.43,3-1.71,3.6c-.84,1.54-1.57,2.94-2.41,4.27a41.49,41.49,0,0,1-2.49,3.65,16.07,16.07,0,0,1-3.64,3.34A15.48,15.48,0,0,1,466.58,289.16Zm-83.46,57.49-2.15.26c-1,.11-1.05.91-1.05,1.42v8.28c0,.52.1,1.31,1.05,1.43l2.15.24v2.16H370.31v-2.16l2.14-.24h0a1.25,1.25,0,0,0,1-1.42v-2.53h-9.85v2.57a1.25,1.25,0,0,0,1.08,1.39l2.13.24v2.16H354.06v-2.16l2.15-.24c1-.12,1.06-.91,1.06-1.43v-8.28c0-.51-.1-1.31-1.06-1.42l-2.15-.26V344.5h12.81v2.15l-2.13.26h0a1.24,1.24,0,0,0-1,1.42v2.53h9.85v-2.57a1.22,1.22,0,0,0-1.07-1.38l-2.14-.26V344.5h12.81ZM396.85,361c-10.38,0-13.06-4.54-13.06-8.53s2.68-8.54,13.06-8.54,13.07,4.54,13.07,8.54S407.24,361,396.85,361Zm41.74-14.37-2.13.26c-1,.11-1.06.91-1.06,1.42v12.11h-7.78a1.63,1.63,0,0,1-1.61-.67l-8.45-11.14v8a1.25,1.25,0,0,0,1.08,1.39l2.13.24v2.16H410.54v-2.16l2.14-.24c1-.12,1.07-.91,1.07-1.43v-8.28c0-.51-.1-1.31-1.07-1.42l-2.14-.26V344.5h11c.92,0,1.24.16,1.63.67l8.44,11.14v-8c0-.51-.1-1.31-1.07-1.42l-2.14-.26V344.5h10.22Zm17,13.79h-16v-2.16l2.14-.24c.95-.12,1.05-.91,1.05-1.43v-8.45a1.15,1.15,0,0,0,0-.19,1.12,1.12,0,0,0-1.12-1.12l-1.89-.2V344.5h15.79c5.72,0,10.42,2.31,10.42,8S461.27,360.44,455.58,360.44Zm39.31,0H481.07v-2.18l1.81-.18c.69,0,1.49-.46.86-1.42l-.72-1.1h-9.81l-.82,1.34c-.37.6,0,1.12.78,1.21l1.76.17v2.16H464.7v-2.16l2.18-.24a1.54,1.54,0,0,0,1.12-.86l5.47-8.85a.9.9,0,0,0,.16-.36.85.85,0,0,0-.67-1l-2.85-.34V344.5h12.12a1.76,1.76,0,0,1,1.64,1.06l7.36,11.25a2.11,2.11,0,0,0,1.65,1.25h0l2,.22Z" transform="translate(-5.21 -6.38)"/></svg>