<?xml version="1.0" encoding="utf-8"?>
<!-- Generator: Adobe Illustrator 24.3.0, SVG Export Plug-In . SVG Version: 6.00 Build 0)  -->
<svg version="1.1" id="Layer_1" xmlns="http://www.w3.org/2000/svg" xmlns:xlink="http://www.w3.org/1999/xlink" x="0px" y="0px"
	 viewBox="0 0 99.4 79.8" style="enable-background:new 0 0 99.4 79.8;" xml:space="preserve">
<style type="text/css">
	.st0{fill:#CB3E49;}
</style>
<g>
	<path class="st0" d="M11.9,69.7l1.5,0.2c0.5,0.1,0.8,0.5,0.8,1c0,0,0,0,0,0v1.8H7.2v-1.8c-0.1-0.5,0.2-0.9,0.7-1c0,0,0,0,0,0
		l1.5-0.2v-1.5h-9v1.5L2,69.9c0.7,0.1,0.7,0.6,0.7,1v5.8c0,0.4-0.1,0.9-0.7,1l-1.5,0.2v1.5h9v-1.5L8,77.7c-0.5-0.1-0.8-0.5-0.8-1
		c0,0,0,0,0,0V75h6.9v1.8c0.1,0.5-0.2,0.9-0.7,1c0,0,0,0,0,0l-1.5,0.2v1.5h9v-1.5l-1.5-0.2c-0.7-0.1-0.7-0.6-0.7-1v-5.8
		c0-0.4,0.1-0.9,0.7-1l1.5-0.2v-1.5h-9V69.7z"/>
	<path class="st0" d="M71.8,68.2H60.7v1.5l1.3,0.1c0.4,0,0.8,0.4,0.8,0.8c0,0,0,0.1,0,0.1v5.9c0,0.4-0.1,0.9-0.7,1l-1.5,0.2v1.5
		h11.2c4,0,7.3-1.6,7.3-5.6S75.8,68.2,71.8,68.2 M71,77.3h-3.8v-6.9H71c2.2,0,3,1.1,3,3.5S73.2,77.3,71,77.3L71,77.3z"/>
	<path class="st0" d="M98,77.8c-0.5-0.1-1-0.4-1.2-0.9L91.7,69c-0.2-0.5-0.7-0.7-1.1-0.7H82v1.5l2,0.2c0.3,0.1,0.5,0.4,0.5,0.7
		c0,0.1-0.1,0.2-0.1,0.3l-3.8,6.2c-0.2,0.3-0.4,0.5-0.8,0.6l-1.5,0.2v1.5h7.2v-1.5l-1.2-0.1c-0.5-0.1-0.8-0.4-0.6-0.8l0.6-0.9h6.9
		l0.5,0.8c0.4,0.7-0.1,1-0.6,1l-1.3,0.1v1.5h9.7v-1.5L98,77.8 M85.4,74l2.1-3.4l2.2,3.4H85.4z"/>
	<path class="st0" d="M52.7,69.7l1.5,0.2c0.7,0.1,0.8,0.6,0.8,1v5.6L49,68.7c-0.3-0.4-0.5-0.5-1.1-0.5h-7.7v1.5l1.5,0.2
		c0.7,0.1,0.8,0.6,0.8,1v5.8c0,0.4-0.1,0.9-0.8,1l-1.5,0.2v1.5h7.2v-1.5l-1.5-0.2c-0.5-0.1-0.8-0.5-0.8-1c0,0,0,0,0,0v-5.6L51,79
		c0.3,0.4,0.5,0.5,1.1,0.5h5.5v-8.5c0-0.4,0.1-0.9,0.7-1l1.5-0.2v-1.5h-7.2V69.7z"/>
	<path class="st0" d="M30.5,67.8c-7.3,0-9.2,3.2-9.2,6s1.9,6,9.2,6s9.2-3.2,9.2-6S37.9,67.8,30.5,67.8 M30.5,77.7
		c-2.8,0-4-1.2-4-3.8s1.2-3.8,4-3.8s4,1.2,4,3.8S33.3,77.7,30.5,77.7z"/>
	<polygon class="st0" points="26.6,66.1 21.2,61.1 48.5,58 61.7,66.1 	"/>
	<path class="st0" d="M72.6,44.7L15.1,55.5l5,4.6l26.4-3.3C46.2,56.7,46,56.4,46,56c0-0.4,0.3-0.7,0.7-0.7c0.3,0,14.7-2.2,15.7-2.3
		c1-0.2,2-0.5,3-0.9c0.9-0.4,1.8-1,2.5-1.7c0.3-0.3,1.5-1.5,2.2-2.3l1.2-1.4c0.3-0.4,1.1-1.3,1.4-1.7c0.1-0.1,0.1-0.2,0-0.2
		C72.7,44.7,72.7,44.7,72.6,44.7z"/>
	<path class="st0" d="M81.6,32.1L9.8,50.6l4.3,4l22.1-4.2c-0.4-0.2-0.6-0.4-0.6-0.8c0-0.4,0.3-0.7,0.6-0.7l35.9-7
		c1.1-0.2,2.1-0.6,3-1.2c0.8-0.5,1.5-1.1,2.2-1.9c0.5-0.5,1.3-1.6,1.9-2.5c0.5-0.6,0.9-1.2,1.2-1.7s1.1-1.7,1.4-2.3
		c0.1-0.1,0.1-0.2,0-0.3C81.8,32.1,81.7,32.1,81.6,32.1z"/>
	<path class="st0" d="M72.1,11.2c1-0.4,5.7-2.5,6.8-3l5.4-2.4c1.3-0.6,5.1-2.4,5.6-2.6C92.6,2,95.9,0.4,96.6,0
		c0.1-0.1,0.3,0,0.4,0.1c0,0.1,0,0.1,0,0.2c-0.6,1.8-1.2,3.6-2,5.3c-0.5,1.3-1.1,2.5-1.8,3.7c-0.6,1-1.3,1.9-2.2,2.7
		c-1,1-2.3,1.8-3.6,2.3c-0.8,0.3-2.2,0.9-3.2,1.3c-0.2,0.1-4.2,1.6-5.1,1.9l-70.8,25c-1.7,0.6-3.6,1.7-3.6,3.8
		c0.1,1.2,0.7,2.4,1.7,3.2l17.9,16.7h-8.3c-0.2-0.6-0.4-1.1-0.7-1.7c-0.4-0.7-0.8-1.3-1.4-1.8l-1.7-1.7l-9.4-9.4
		c-1.6-1.6-2.6-3.7-2.7-6c0-2.8,1.6-5.5,6.3-7.5L72.1,11.2z"/>
	<path class="st0" d="M79.9,20.7l3.2-1.1c0.5-0.2,2.3-0.8,2.6-1c1.3-0.5,2.6-1,3.8-1.5c0.2-0.1,0.4,0.1,0.3,0.3s-1,2.1-1.2,2.5
		c-0.6,1.1-1.1,2.1-1.7,3s-1.3,2-1.8,2.6c-0.7,0.9-1.6,1.7-2.6,2.3c-1,0.7-2.1,1.2-3.2,1.5l-52.2,14c-0.3,0.1-0.5,0.4-0.6,0.7
		c0,0.3,0.2,0.6,0.5,0.7L8.8,49.6l-1.5-1.4c-0.5-0.4-0.8-1.1-0.8-1.7c0-1.4,1.1-2,2.7-2.5L79.9,20.7z"/>
</g>
</svg>
